<svg version="1.1" viewBox="0.0 0.0 512.0 512.0" fill="none" stroke="none" stroke-linecap="square" stroke-miterlimit="10" xmlns:xlink="http://www.w3.org/1999/xlink" xmlns="http://www.w3.org/2000/svg"><clipPath id="p.0"><path d="m0 0l512.0 0l0 512.0l-512.0 0l0 -512.0z" clip-rule="nonzero"/></clipPath><g clip-path="url(#p.0)"><path fill="#000000" fill-opacity="0.0" d="m0 0l512.0 0l0 512.0l-512.0 0z" fill-rule="evenodd"/><g filter="url(#shadowFilter-p.1)"><use xlink:href="#p.1" transform="matrix(1.0 0.0 0.0 1.0 0.0 2.0)"/></g><defs><filter id="shadowFilter-p.1" filterUnits="userSpaceOnUse"><feGaussianBlur in="SourceAlpha" stdDeviation="2.0" result="blur"/><feComponentTransfer in="blur" color-interpolation-filters="sRGB"><feFuncR type="linear" slope="0" intercept="0.0"/><feFuncG type="linear" slope="0" intercept="0.0"/><feFuncB type="linear" slope="0" intercept="0.0"/><feFuncA type="linear" slope="0.5" intercept="0"/></feComponentTransfer></filter></defs><g id="p.1"><path fill="#2eb6ff" d="m93.76378 116.32039l0 0c0 -3.8805923 3.1458359 -7.026428 7.0264206 -7.026428l310.41962 0c1.8635254 0 3.6506958 0.7402878 4.9684143 2.057991c1.3177185 1.3177109 2.0579834 3.1049118 2.0579834 4.968437l0 75.08101c0 3.8805847 -3.145813 7.026428 -7.0263977 7.026428l-310.41962 0c-3.8805847 0 -7.0264206 -3.1458435 -7.0264206 -7.026428z" fill-rule="evenodd"/><path stroke="#1d7caf" stroke-width="12.0" stroke-linejoin="round" stroke-linecap="butt" d="m93.76378 116.32039l0 0c0 -3.8805923 3.1458359 -7.026428 7.0264206 -7.026428l310.41962 0c1.8635254 0 3.6506958 0.7402878 4.9684143 2.057991c1.3177185 1.3177109 2.0579834 3.1049118 2.0579834 4.968437l0 75.08101c0 3.8805847 -3.145813 7.026428 -7.0263977 7.026428l-310.41962 0c-3.8805847 0 -7.0264206 -3.1458435 -7.0264206 -7.026428z" fill-rule="evenodd"/></g><g filter="url(#shadowFilter-p.2)"><use xlink:href="#p.2" transform="matrix(1.0 0.0 0.0 1.0 0.0 2.0)"/></g><defs><filter id="shadowFilter-p.2" filterUnits="userSpaceOnUse"><feGaussianBlur in="SourceAlpha" stdDeviation="2.0" result="blur"/><feComponentTransfer in="blur" color-interpolation-filters="sRGB"><feFuncR type="linear" slope="0" intercept="0.0"/><feFuncG type="linear" slope="0" intercept="0.0"/><feFuncB type="linear" slope="0" intercept="0.0"/><feFuncA type="linear" slope="0.5" intercept="0"/></feComponentTransfer></filter></defs><g id="p.2"><path fill="#2eb6ff" d="m210.44095 402.70602l0 -259.3626l45.55905 -8.007462l45.55905 8.007462l0 259.3626l-45.55905 -8.007446z" fill-rule="evenodd"/><path stroke="#1d7caf" stroke-width="12.0" stroke-linejoin="round" stroke-linecap="butt" d="m210.44095 402.70602l0 -259.3626l45.55905 -8.007462l45.55905 8.007462l0 259.3626l-45.55905 -8.007446z" fill-rule="evenodd"/></g><path fill="#2eb6ff" d="m191.65355 125.31898l128.69292 0l0 67.08662l-128.69292 0z" fill-rule="evenodd"/><g filter="url(#shadowFilter-p.3)"><use xlink:href="#p.3" transform="matrix(1.0 0.0 0.0 1.0 0.0 2.0)"/></g><defs><filter id="shadowFilter-p.3" filterUnits="userSpaceOnUse"><feGaussianBlur in="SourceAlpha" stdDeviation="2.0" result="blur"/><feComponentTransfer in="blur" color-interpolation-filters="sRGB"><feFuncR type="linear" slope="0" intercept="0.0"/><feFuncG type="linear" slope="0" intercept="0.0"/><feFuncB type="linear" slope="0" intercept="0.0"/><feFuncA type="linear" slope="0.5" intercept="0"/></feComponentTransfer></filter></defs><g id="p.3"><path fill="#ffc82e" d="m264.46912 363.66403l-70.036255 0l-40.01097 -67.60629l40.01097 -67.60629l70.036255 0l-40.010956 67.60629z" fill-rule="evenodd"/><path stroke="#d2a526" stroke-width="12.0" stroke-linejoin="round" stroke-linecap="butt" d="m264.46912 363.66403l-70.036255 0l-40.01097 -67.60629l40.01097 -67.60629l70.036255 0l-40.010956 67.60629z" fill-rule="evenodd"/></g><g filter="url(#shadowFilter-p.4)"><use xlink:href="#p.4" transform="matrix(1.0 0.0 0.0 1.0 0.0 2.0)"/></g><defs><filter id="shadowFilter-p.4" filterUnits="userSpaceOnUse"><feGaussianBlur in="SourceAlpha" stdDeviation="2.0" result="blur"/><feComponentTransfer in="blur" color-interpolation-filters="sRGB"><feFuncR type="linear" slope="0" intercept="0.0"/><feFuncG type="linear" slope="0" intercept="0.0"/><feFuncB type="linear" slope="0" intercept="0.0"/><feFuncA type="linear" slope="0.5" intercept="0"/></feComponentTransfer></filter></defs><g id="p.4"><path fill="#ffc82e" d="m357.57675 363.66403l-70.036285 0l-40.01097 -67.60629l40.01097 -67.60629l70.036285 0l-40.010986 67.60629z" fill-rule="evenodd"/><path stroke="#d2a526" stroke-width="12.0" stroke-linejoin="round" stroke-linecap="butt" d="m357.57675 363.66403l-70.036285 0l-40.01097 -67.60629l40.01097 -67.60629l70.036285 0l-40.010986 67.60629z" fill-rule="evenodd"/></g></g></svg>